<svg width="106" height="56" viewBox="0 0 106 56" fill="none" xmlns="http://www.w3.org/2000/svg">
<g clip-path="url(#clip0_157_14040)">
<path d="M0.943376 52.9146C0.599979 52.9146 0.276786 53.0226 0.0581257 53.2099L0.189967 53.4311C0.368033 53.2723 0.633008 53.1724 0.914591 53.1724C1.32027 53.1724 1.53099 53.3769 1.53099 53.7522V53.8854H0.839951C0.21497 53.8854 0 54.1683 0 54.506C0 54.8851 0.301789 55.1434 0.794652 55.1434C1.15456 55.1434 1.41105 55.0059 1.54382 54.781V55.1225H1.82438V53.7645C1.82438 53.1976 1.50645 52.9146 0.943376 52.9146ZM0.839951 54.9103C0.492217 54.9103 0.289148 54.7519 0.289148 54.4975C0.289148 54.2725 0.426157 54.1055 0.847887 54.1055H1.53099V54.4642C1.4153 54.7519 1.17108 54.9103 0.839951 54.9103ZM3.73236 52.9146C3.35585 52.9146 3.06198 53.0683 2.90468 53.3351V52.9312H2.62356V55.1225H2.91696V53.9729C2.91696 53.4726 3.2109 53.181 3.67848 53.181C4.09274 53.181 4.3328 53.4183 4.3328 53.8806V55.1225H4.62601V53.8516C4.62601 53.2223 4.26232 52.9146 3.73236 52.9146ZM8.60673 55.1225H9.31013L8.01543 52.2064H7.35308L6.06207 55.1225H6.74895L7.00543 54.4975H8.35025L8.60673 55.1225ZM7.22086 53.9852L7.67997 52.8689L8.13914 53.9852H7.22086ZM9.61257 55.1225H10.928C11.8762 55.1225 12.5253 54.5479 12.5253 53.6642C12.5253 52.7809 11.8762 52.2064 10.928 52.2064H9.61257V55.1225ZM10.2824 54.5688V52.76H10.895C11.4703 52.76 11.8473 53.1058 11.8473 53.6642C11.8473 54.2226 11.4703 54.5688 10.895 54.5688H10.2824ZM15.0538 52.2064L14.1602 54.2892L13.2787 52.2064H12.555L13.8045 55.1225H14.4662L15.7199 52.2064H15.0538ZM18.0289 55.1225H18.7323L17.4375 52.2064H16.7752L15.4847 55.1225H16.1715L16.4281 54.4975H17.7724L18.0289 55.1225ZM16.6429 53.9852L17.1021 52.8689L17.5617 53.9852H16.6429ZM21.0295 52.2064V53.9767L19.5891 52.2064H19.0351V55.1225H19.6964V53.3517L21.141 55.1225H21.6912V52.2064H21.0295ZM22.9785 55.1225H23.6483V52.7558H24.5751V52.2064H22.0518V52.7558H22.9785V55.1225ZM26.955 55.1225H27.6579L26.3631 52.2064H25.7013L24.4102 55.1225H25.0971L25.3536 54.4975H26.6984L26.955 55.1225ZM25.5685 53.9852L26.0281 52.8689L26.4873 53.9852H25.5685ZM29.8766 54.4728C29.707 54.5645 29.537 54.5978 29.3551 54.5978C28.8005 54.5978 28.4156 54.2102 28.4156 53.6642C28.4156 53.1101 28.8005 52.7305 29.3631 52.7305C29.657 52.7305 29.9012 52.8352 30.1123 53.0601L30.5422 52.6606C30.2611 52.3311 29.8393 52.1565 29.3301 52.1565C28.407 52.1565 27.7372 52.7848 27.7372 53.6642C27.7372 54.5436 28.407 55.1724 29.3178 55.1724C29.7316 55.1724 30.17 55.0435 30.4884 54.8019V53.6185H29.8766V54.4728ZM31.7756 54.5812V53.9058H33.1205V53.3812H31.7756V52.7472H33.2981V52.2064H31.1095V55.1225H33.3519V54.5812H31.7756Z" fill="white"/>
<path d="M36.1307 55.117C36.9612 55.117 37.3634 54.7084 37.3634 54.2298C37.3634 53.1793 35.674 53.5435 35.674 53.0154C35.674 52.8352 35.828 52.6872 36.2264 52.6872C36.4837 52.6872 36.7618 52.761 37.0313 52.9127L37.2388 52.4094C36.9693 52.2417 36.596 52.1564 36.2307 52.1564C35.4045 52.1564 35.0065 52.5606 35.0065 53.0481C35.0065 54.1113 36.6954 53.7438 36.6954 54.2789C36.6954 54.4549 36.5339 54.5857 36.135 54.5857C35.7863 54.5857 35.421 54.4628 35.1766 54.2873L34.9482 54.7859C35.2055 54.9821 35.6702 55.117 36.1307 55.117ZM41.098 55.068L41.0895 52.2053H40.5371L39.4669 53.9843L38.3801 52.2053H37.8244V55.068H38.4545V53.3871L39.3049 54.7654H39.6076L40.4622 53.3502L40.4665 55.068H41.098ZM43.1944 55.117C44.1073 55.117 44.7833 54.4918 44.7833 53.6364C44.7833 52.7815 44.1073 52.1564 43.1944 52.1564C42.2767 52.1564 41.6049 52.7857 41.6049 53.6364C41.6049 54.4877 42.2767 55.117 43.1944 55.117ZM43.1944 54.5529C42.6751 54.5529 42.2852 54.1809 42.2852 53.6364C42.2852 53.0925 42.6751 52.7199 43.1944 52.7199C43.7131 52.7199 44.1035 53.0925 44.1035 53.6364C44.1035 54.1809 43.7131 54.5529 43.1944 54.5529ZM45.2902 55.068H47.4188V54.5282H45.962V52.2053H45.2902V55.068ZM47.7968 55.068H49.9254V54.5282H48.4686V52.2053H47.7968V55.068ZM52.4984 55.068H53.2038L51.9052 52.2053H51.241L49.9463 55.068H50.6351L50.8923 54.4545H52.2411L52.4984 55.068ZM51.1084 53.9516L51.5689 52.8557L52.0293 53.9516H51.1084ZM55.5076 52.2053V53.9432L54.0627 52.2053H53.507V55.068H54.1707V53.3297L55.6197 55.068H56.1709V52.2053H55.5076ZM58.9182 55.0885C59.2877 55.0885 59.5989 54.9414 59.7733 54.6632L59.5535 54.5161C59.4037 54.7328 59.1716 54.8313 58.9182 54.8313C58.4411 54.8313 58.0924 54.4998 58.0924 53.9922C58.0924 53.4894 58.4411 53.1537 58.9182 53.1537C59.1716 53.1537 59.4037 53.2559 59.5535 53.473L59.7733 53.3255C59.5989 53.0434 59.2877 52.9006 58.9182 52.9006C58.2667 52.9006 57.7939 53.3502 57.7939 53.9922C57.7939 54.6347 58.2667 55.0885 58.9182 55.0885ZM61.2057 55.0885C61.8445 55.0885 62.3131 54.6305 62.3131 53.9922C62.3131 53.3539 61.8445 52.9006 61.2057 52.9006C60.5659 52.9006 60.0931 53.3539 60.0931 53.9922C60.0931 54.6305 60.5659 55.0885 61.2057 55.0885ZM61.2057 54.8313C60.7402 54.8313 60.3915 54.4956 60.3915 53.9922C60.3915 53.4894 60.7402 53.1537 61.2057 53.1537C61.6704 53.1537 62.0148 53.4894 62.0148 53.9922C62.0148 54.4956 61.6704 54.8313 61.2057 54.8313ZM65.6376 52.9006C65.2435 52.9006 64.932 53.0761 64.7742 53.3539C64.6418 53.0514 64.3597 52.9006 63.9984 52.9006C63.6332 52.9006 63.3506 53.0514 63.1971 53.3091V52.9169H62.9152V55.068H63.2096V53.9395C63.2096 53.4483 63.4963 53.162 63.9402 53.162C64.3388 53.162 64.5712 53.395 64.5712 53.8489V55.068H64.8652V53.939C64.8652 53.4483 65.1475 53.162 65.5962 53.162C65.9903 53.162 66.2229 53.395 66.2229 53.8489V55.068H66.5171V53.8204C66.5171 53.2026 66.1689 52.9006 65.6376 52.9006ZM68.4429 52.9006C68.0819 52.9006 67.779 53.0556 67.6001 53.3418V52.9169H67.3182V55.8613H67.6124V54.6637C67.7953 54.9414 68.0945 55.0885 68.4429 55.0885C69.0654 55.0885 69.5297 54.6473 69.5297 53.9926C69.5297 53.3418 69.0654 52.9006 68.4429 52.9006ZM68.4221 54.8313C67.9576 54.8313 67.6087 54.4956 67.6087 53.9922C67.6087 53.4931 67.9576 53.1537 68.4221 53.1537C68.883 53.1537 69.236 53.4931 69.236 53.9922C69.236 54.4956 68.883 54.8313 68.4221 54.8313ZM70.8832 52.9006C70.5383 52.9006 70.2148 53.0066 69.9954 53.1905L70.1278 53.4076C70.3064 53.2517 70.5722 53.1537 70.8538 53.1537C71.2608 53.1537 71.4726 53.3544 71.4726 53.7228V53.8536H70.7797C70.1527 53.8536 69.9371 54.1314 69.9371 54.4628C69.9371 54.835 70.2394 55.0885 70.7335 55.0885C71.0952 55.0885 71.3525 54.9536 71.4854 54.7328V55.068H71.767V53.7349C71.767 53.1784 71.4479 52.9006 70.8832 52.9006ZM70.7797 54.8597C70.4308 54.8597 70.2273 54.7042 70.2273 54.4545C70.2273 54.2336 70.364 54.0697 70.7875 54.0697H71.4726V54.4218C71.3565 54.7042 71.1116 54.8597 70.7797 54.8597ZM73.6802 52.9006C73.3027 52.9006 73.0075 53.0514 72.8502 53.3133V52.9169H72.5683V55.068H72.8628V53.9395C72.8628 53.4483 73.1572 53.162 73.6262 53.162C74.0412 53.162 74.2824 53.395 74.2824 53.8489V55.068H74.5766V53.8204C74.5766 53.2026 74.2118 52.9006 73.6802 52.9006ZM76.8802 52.9169L76.058 54.7454L75.2365 52.9169H74.9295L75.9045 55.0643L75.8093 55.2729C75.6849 55.5429 75.552 55.633 75.3568 55.633C75.1991 55.633 75.0664 55.5755 74.9589 55.4691L74.8215 55.6858C74.9549 55.8164 75.1493 55.8818 75.3531 55.8818C75.6638 55.8818 75.8965 55.7469 76.0791 55.3262L77.1704 52.9169H76.8802Z" fill="white"/>
<rect x="34.0605" y="51.4468" width="0.177404" height="4.6125" fill="white"/>
<path d="M21.79 21.3928C24.1743 21.3928 25.9626 20.863 27.1547 19.8033C28.3469 18.7436 28.9429 17.0216 28.9429 14.6373C28.9429 12.3419 28.3469 10.6748 27.1547 9.63687C25.9626 8.59988 24.1743 8.08044 21.79 8.08044H10.3984V21.3928H21.79ZM25.4989 0.000286102C27.6183 0.000286102 29.5277 0.342793 31.2279 1.02686C32.9272 1.71188 34.3843 2.64952 35.5991 3.84167C36.8131 5.03382 37.7403 6.41426 38.3808 7.9811C39.0204 9.54887 39.3412 11.2378 39.3412 13.0477C39.3412 15.8294 38.7555 18.2365 37.5861 20.2669C36.4157 22.2983 34.5063 23.8434 31.8571 24.9031V25.0355C33.1372 25.3894 34.1969 25.9296 35.0362 26.6582C35.8745 27.3867 36.5595 28.2477 37.0893 29.2412C37.6192 30.2346 38.0052 31.3274 38.2484 32.5196C38.4906 33.7118 38.6562 34.9039 38.7451 36.0961C38.7886 36.8473 38.8331 37.73 38.8776 38.7453C38.9211 39.7614 38.9987 40.7984 39.1094 41.8581C39.2191 42.9178 39.3961 43.9226 39.6392 44.8717C39.8814 45.8216 40.2457 46.6268 40.732 47.2891H30.3338C29.7595 45.7884 29.4066 44.0003 29.2741 41.9244C29.1416 39.8495 28.9429 37.8626 28.678 35.9636C28.3242 33.4913 27.5739 31.6813 26.4262 30.5327C25.2775 29.385 23.4013 28.8107 20.7966 28.8107H10.3984V47.2891H0V0.000286102H25.4989Z" fill="#AFB0C0"/>
<path d="M57.9689 0.000286102H48.5854L30.7031 47.2891H41.1674L44.8763 36.7584H62.5601L66.1366 47.2891H76.932L72.956 36.6562C67.4837 33.893 62.9552 29.8623 59.923 25.0081L47.5279 28.2416L56.2233 15.6336C55.9117 14.009 55.7417 12.3429 55.7417 10.6412C55.7417 6.89349 56.5334 3.30851 57.9689 0.000286102Z" fill="white"/>
<path d="M69.5754 19.0946L68.2641 15.2768H68.2347L66.8796 19.0946H69.5754ZM69.4444 12.7125L73.3345 23.1162H70.9597L70.1727 20.7993H66.2823L65.4663 23.1162H63.1641L67.0984 12.7125H69.4444ZM77.6187 16.9383C77.2878 16.9383 77.011 17.0135 76.788 17.1639C76.5642 17.3146 76.3818 17.5088 76.2416 17.7468C76.1006 17.9847 76.0012 18.2473 75.9431 18.5333C75.8844 18.8202 75.8555 19.1043 75.8555 19.3857C75.8555 19.658 75.8844 19.9347 75.9431 20.2167C76.0012 20.4982 76.0956 20.7532 76.2269 20.9817C76.3579 21.2097 76.5353 21.3963 76.7586 21.5423C76.9817 21.688 77.2544 21.7606 77.5745 21.7606C78.07 21.7606 78.4511 21.6224 78.7186 21.3459C78.9854 21.0687 79.1534 20.6973 79.2215 20.2309H81.2174C81.0811 21.2315 80.6927 21.994 80.0517 22.5185C79.4107 23.0433 78.5897 23.3054 77.5894 23.3054C77.0259 23.3054 76.5084 23.2108 76.0377 23.0216C75.5665 22.8319 75.1658 22.5674 74.8356 22.2273C74.5049 21.8869 74.2475 21.4817 74.063 21.0105C73.8783 20.5391 73.7863 20.0223 73.7863 19.4586C73.7863 18.876 73.8714 18.3346 74.0413 17.8343C74.2111 17.3335 74.4614 16.9016 74.7916 16.5373C75.1218 16.1733 75.5246 15.889 76.0012 15.6849C76.4772 15.4812 77.021 15.3788 77.6326 15.3788C78.0799 15.3788 78.5093 15.437 78.9225 15.5541C79.3355 15.6702 79.7045 15.8476 80.03 16.0858C80.3554 16.3235 80.6197 16.6197 80.8243 16.9745C81.0282 17.3288 81.1445 17.7491 81.1739 18.235H79.1486C79.0121 17.37 78.5024 16.9383 77.6187 16.9383ZM86.5211 15.5829V16.9671H85.0056V20.6973C85.0056 21.0469 85.0637 21.2802 85.1804 21.3963C85.2972 21.5132 85.5304 21.5714 85.88 21.5714C85.9964 21.5714 86.1081 21.5669 86.215 21.5569C86.3219 21.5472 86.4238 21.5328 86.5211 21.5132V23.1162C86.3458 23.1448 86.1516 23.1642 85.9382 23.1744C85.7242 23.1836 85.5158 23.1888 85.3119 23.1888C84.9911 23.1888 84.6874 23.1673 84.4012 23.1233C84.1145 23.0798 83.8617 22.9946 83.6433 22.8681C83.4248 22.7425 83.2521 22.5622 83.1263 22.3295C82.9999 22.096 82.9366 21.7902 82.9366 21.411V16.9671H81.6831V15.5829H82.9366V13.3242H85.0056V15.5829H86.5211ZM87.5699 12.7125H89.6391V14.4177H87.5699V12.7125ZM89.6391 23.1162H87.5699V15.5829H89.6391V23.1162ZM93.1359 23.1162L90.5569 15.5829H92.7278L94.3164 20.7267H94.3453L95.9334 15.5829H97.988L95.4381 23.1162H93.1359ZM103.401 17.3458C103.153 17.0738 102.776 16.9383 102.271 16.9383C101.941 16.9383 101.667 16.9939 101.449 17.1057C101.23 17.2172 101.055 17.356 100.924 17.5211C100.793 17.6862 100.7 17.861 100.647 18.045C100.594 18.2302 100.562 18.3951 100.553 18.5411H103.918C103.821 18.0164 103.649 17.6181 103.401 17.3458ZM101.062 21.3095C101.373 21.6104 101.82 21.7606 102.403 21.7606C102.82 21.7606 103.18 21.6567 103.481 21.4476C103.782 21.239 103.967 21.0181 104.035 20.7849H105.856C105.565 21.688 105.118 22.3342 104.515 22.7226C103.913 23.1112 103.185 23.3054 102.33 23.3054C101.738 23.3054 101.203 23.2108 100.727 23.0216C100.251 22.8319 99.8479 22.5622 99.5179 22.2126C99.1875 21.8628 98.9327 21.445 98.7529 20.9594C98.5732 20.4741 98.4833 19.9395 98.4833 19.3564C98.4833 18.7937 98.5755 18.269 98.76 17.783C98.9445 17.2973 99.2064 16.8775 99.5468 16.5227C99.8867 16.1679 100.292 15.889 100.764 15.6849C101.235 15.4812 101.757 15.3788 102.33 15.3788C102.971 15.3788 103.53 15.503 104.006 15.7504C104.481 15.9983 104.873 16.3313 105.179 16.7486C105.484 17.1663 105.705 17.6427 105.842 18.1766C105.977 18.7107 106.026 19.2696 105.987 19.8522H100.553C100.581 20.5221 100.751 21.0082 101.062 21.3095Z" fill="white"/>
<path d="M68.9937 5.06815C69.2946 5.06815 69.5811 5.02226 69.8533 4.92953C70.1253 4.83728 70.3633 4.70388 70.567 4.52884C70.7716 4.35427 70.9338 4.14281 71.0554 3.89539C71.177 3.6475 71.2373 3.36318 71.2373 3.0429C71.2373 2.40188 71.053 1.89664 70.684 1.52764C70.3146 1.15817 69.7516 0.973664 68.9937 0.973664H65.2929V5.06815H68.9937ZM69.0666 0.128749C69.4935 0.128749 69.8992 0.182207 70.2833 0.289123C70.6668 0.396038 71.0017 0.558307 71.2886 0.776868C71.5748 0.99543 71.8033 1.27738 71.9737 1.62226C72.1435 1.96713 72.2286 2.37256 72.2286 2.83901C72.2286 3.49942 72.0583 4.07232 71.7187 4.55817C71.3785 5.04402 70.873 5.35483 70.2027 5.4906V5.51993C70.5431 5.56866 70.8243 5.65808 71.0483 5.78983C71.2716 5.92063 71.4535 6.0881 71.5947 6.292C71.7352 6.49589 71.8374 6.73148 71.9008 6.99877C71.9637 7.26606 72.0049 7.55511 72.0243 7.86593C72.0342 8.04049 72.0437 8.25432 72.0536 8.50695C72.0631 8.75957 72.0829 9.01456 72.1118 9.27191C72.1411 9.52926 72.187 9.77243 72.2504 10.0004C72.3133 10.2285 72.3985 10.4059 72.5054 10.5322H71.4126C71.3544 10.4352 71.308 10.316 71.274 10.175C71.2399 10.0345 71.2158 9.8888 71.2011 9.73789C71.1865 9.58745 71.1742 9.43938 71.1647 9.29391C71.1548 9.14797 71.1453 9.02165 71.1358 8.91474C71.116 8.54574 71.0847 8.1791 71.0405 7.81483C70.9972 7.45056 70.905 7.12509 70.7638 6.8384C70.623 6.55219 70.4189 6.32133 70.1523 6.14629C69.885 5.97173 69.5184 5.89367 69.0519 5.91306H65.2929V10.5322H64.3018V0.128749H69.0666ZM79.0693 5.24318C78.9577 4.92244 78.7997 4.63812 78.5958 4.3907C78.3919 4.14281 78.144 3.94411 77.8526 3.7932C77.5612 3.64276 77.2307 3.56755 76.862 3.56755C76.483 3.56755 76.1481 3.64276 75.8567 3.7932C75.565 3.94411 75.3171 4.14281 75.1135 4.3907C74.9096 4.63812 74.7461 4.9248 74.6252 5.25028C74.5037 5.57576 74.4237 5.90833 74.3849 6.24847H79.2515C79.2413 5.89887 79.1807 5.56346 79.0693 5.24318ZM74.5231 8.04806C74.6153 8.40239 74.7639 8.72077 74.9678 9.00249C75.1717 9.28421 75.429 9.51744 75.7398 9.70146C76.0506 9.88644 76.4248 9.97869 76.862 9.97869C77.5323 9.97869 78.0565 9.80365 78.4354 9.45404C78.8143 9.10444 79.0764 8.63799 79.2221 8.05516H80.1404C79.9459 8.91001 79.5888 9.57042 79.0693 10.0369C78.5494 10.5029 77.8138 10.7361 76.862 10.7361C76.2692 10.7361 75.7568 10.6315 75.3245 10.4229C74.8921 10.2143 74.5399 9.92759 74.2681 9.56332C73.9961 9.19905 73.7945 8.7766 73.6635 8.29548C73.5324 7.81483 73.4667 7.30746 73.4667 6.77312C73.4667 6.27733 73.5324 5.79196 73.6635 5.31604C73.7945 4.84012 73.9961 4.41483 74.2681 4.0411C74.5399 3.6669 74.8921 3.36601 75.3245 3.13752C75.7568 2.90949 76.2692 2.79501 76.862 2.79501C77.4642 2.79501 77.9787 2.91659 78.4066 3.15928C78.8337 3.40244 79.1807 3.72035 79.448 4.11419C79.7151 4.50708 79.9072 4.95887 80.0235 5.46884C80.1404 5.97882 80.1886 6.4959 80.1692 7.02054H74.3849C74.3849 7.35075 74.4306 7.69325 74.5231 8.04806ZM84.3945 3.01357V3.78611H82.8648V8.85655C82.8648 9.1579 82.906 9.39349 82.9888 9.56332C83.0711 9.73316 83.2778 9.82777 83.608 9.84717C83.8701 9.84717 84.1327 9.83298 84.3945 9.80365V10.5757C84.2585 10.5757 84.1227 10.5804 83.987 10.5904C83.8507 10.5998 83.7147 10.605 83.5787 10.605C82.9668 10.605 82.5394 10.4863 82.2964 10.2479C82.054 10.0099 81.9371 9.57042 81.9471 8.9294V3.78611H80.6357V3.01357H81.9471V0.755103H82.8648V3.01357H84.3945ZM85.91 4.17923C86.0652 3.85896 86.2767 3.5964 86.5437 3.39251C86.8105 3.18861 87.1242 3.03818 87.484 2.94072C87.843 2.84374 88.2414 2.79501 88.6785 2.79501C89.0087 2.79501 89.3389 2.82671 89.6696 2.88963C89.9993 2.95302 90.2959 3.07176 90.558 3.24704C90.8203 3.42184 91.0339 3.66689 91.1995 3.98243C91.3639 4.29845 91.4469 4.70908 91.4469 5.21385V9.20615C91.4469 9.57562 91.6267 9.76013 91.9862 9.76013C92.0924 9.76013 92.1901 9.74073 92.2776 9.70146V10.474C92.1705 10.4934 92.0756 10.5081 91.9931 10.5175C91.9105 10.5275 91.8062 10.5322 91.6802 10.5322C91.4469 10.5322 91.2601 10.501 91.1191 10.4376C90.9779 10.3742 90.8688 10.2843 90.791 10.1679C90.7134 10.0515 90.6626 9.91293 90.6384 9.75255C90.6136 9.59218 90.602 9.41525 90.602 9.22082H90.5727C90.4073 9.46351 90.2399 9.6797 90.0703 9.86941C89.9 10.0586 89.7107 10.2166 89.5016 10.3432C89.2928 10.4693 89.055 10.5662 88.7878 10.6344C88.5205 10.702 88.2026 10.7361 87.8336 10.7361C87.484 10.7361 87.1561 10.6949 86.8498 10.6121C86.5437 10.5298 86.2767 10.3988 86.0486 10.219C85.8201 10.0392 85.6404 9.81098 85.5091 9.53399C85.3783 9.25724 85.3123 8.9294 85.3123 8.55047C85.3123 8.02583 85.4291 7.61567 85.6626 7.31952C85.8954 7.0229 86.2038 6.79725 86.5875 6.6416C86.9711 6.48643 87.4035 6.37715 87.8844 6.31376C88.3653 6.25084 88.8535 6.19029 89.3488 6.13162C89.5428 6.11223 89.7131 6.0881 89.8588 6.05877C90.0045 6.02991 90.1256 5.97882 90.2231 5.90597C90.3201 5.83311 90.3953 5.73377 90.4487 5.60746C90.5022 5.48115 90.5292 5.31604 90.5292 5.11167C90.5292 4.80086 90.4781 4.54587 90.3759 4.34671C90.2742 4.14801 90.1332 3.99001 89.9532 3.87339C89.7737 3.75678 89.565 3.67683 89.3271 3.63283C89.0886 3.58931 88.8336 3.56755 88.5621 3.56755C87.9793 3.56755 87.5029 3.70568 87.1339 3.98243C86.7649 4.25966 86.5704 4.70388 86.551 5.31604H85.6333C85.6626 4.87892 85.7544 4.49998 85.91 4.17923ZM90.4998 6.42304C90.4416 6.53043 90.33 6.60801 90.1649 6.65627C89.9993 6.70499 89.8536 6.73906 89.7275 6.75845C89.3389 6.82657 88.938 6.88713 88.5254 6.94058C88.1127 6.99404 87.7359 7.074 87.3964 7.18091C87.0561 7.28783 86.7772 7.4411 86.5586 7.63979C86.3401 7.83896 86.2308 8.12328 86.2308 8.49228C86.2308 8.72551 86.2767 8.93177 86.3689 9.11154C86.4612 9.29131 86.5851 9.44647 86.7405 9.57799C86.8959 9.70903 87.0755 9.80885 87.2796 9.8765C87.484 9.94463 87.6926 9.97869 87.9064 9.97869C88.256 9.97869 88.591 9.92523 88.9117 9.81831C89.2325 9.7114 89.5116 9.55576 89.7495 9.35186C89.9875 9.14796 90.1767 8.90007 90.3175 8.60865C90.4587 8.31724 90.5292 7.9875 90.5292 7.61803V6.42304H90.4998ZM94.2154 1.60049H93.2976V0.128749H94.2154V1.60049ZM94.2154 10.5322H93.2976V3.01357H94.2154V10.5322ZM96.911 10.5322H95.9932V0.128749H96.911V10.5322Z" fill="#AFB0C0"/>
</g>
<defs>
<clipPath id="clip0_157_14040">
<rect width="106" height="55.965" fill="white"/>
</clipPath>
</defs>
</svg>
