<svg width="25" height="25" viewBox="0 0 25 25" fill="none" xmlns="http://www.w3.org/2000/svg">
<path fill-rule="evenodd" clip-rule="evenodd" d="M12.3331 2.57617C16.2031 2.57617 19.3331 5.70617 19.3331 9.57617C19.3331 14.8262 12.3331 22.5762 12.3331 22.5762C12.3331 22.5762 5.33313 14.8262 5.33313 9.57617C5.33313 5.70617 8.46313 2.57617 12.3331 2.57617ZM7.33313 9.57617C7.33313 12.4262 10.2531 16.7862 12.3331 19.4562C14.4531 16.7662 17.3331 12.4562 17.3331 9.57617C17.3331 6.81617 15.0931 4.57617 12.3331 4.57617C9.57313 4.57617 7.33313 6.81617 7.33313 9.57617ZM12.3331 12.0762C10.9524 12.0762 9.83313 10.9569 9.83313 9.57617C9.83313 8.19546 10.9524 7.07617 12.3331 7.07617C13.7138 7.07617 14.8331 8.19546 14.8331 9.57617C14.8331 10.9569 13.7138 12.0762 12.3331 12.0762Z" fill="#ACABBB"/>
</svg>
