<svg width="25" height="25" viewBox="0 0 25 25" fill="none" xmlns="http://www.w3.org/2000/svg">
<path fill-rule="evenodd" clip-rule="evenodd" d="M6.87313 5.15234C6.93313 6.04234 7.08313 6.91234 7.32313 7.74234L6.12313 8.94234C5.71313 7.74234 5.45313 6.47234 5.36313 5.15234H6.87313ZM16.7331 17.1723C17.5831 17.4123 18.4531 17.5623 19.3331 17.6223V19.1123C18.0131 19.0223 16.7431 18.7623 15.5331 18.3623L16.7331 17.1723ZM7.83313 3.15234H4.33313C3.78313 3.15234 3.33313 3.60234 3.33313 4.15234C3.33313 13.5423 10.9431 21.1523 20.3331 21.1523C20.8831 21.1523 21.3331 20.7023 21.3331 20.1523V16.6623C21.3331 16.1123 20.8831 15.6623 20.3331 15.6623C19.0931 15.6623 17.8831 15.4623 16.7631 15.0923C16.6631 15.0523 16.5531 15.0423 16.4531 15.0423C16.1931 15.0423 15.9431 15.1423 15.7431 15.3323L13.5431 17.5323C10.7131 16.0823 8.39313 13.7723 6.95313 10.9423L9.15313 8.74234C9.43313 8.46234 9.51313 8.07234 9.40313 7.72234C9.03313 6.60234 8.83313 5.40234 8.83313 4.15234C8.83313 3.60234 8.38313 3.15234 7.83313 3.15234Z" fill="#ACABBB"/>
</svg>
